HIERARCHY
ROOT pelvis
{
  OFFSET 0 100 0
  CHANNELS 6 Xposition Yposition Zposition Zrotation Xrotation Yrotation
  JOINT pelvis_right_femur
  {
    OFFSET -10.78128 -3.44521 -0.5502486
    CHANNELS 3 Zrotation Xrotation Yrotation
    JOINT right_femur_tibia
    {
      OFFSET -0.8047443 -44.0398 -0.1307829
      CHANNELS 3 Zrotation Xrotation Yrotation
      JOINT right_tibia_foot
      {
        OFFSET 3.006224 -47.83518 -5
        CHANNELS 3 Zrotation Xrotation Yrotation
        End Site
        {
          OFFSET 0 -5 15
        }
      }
    }
  }
  JOINT pelvis_left_femur
  {
    OFFSET 10.78128 -3.44521 -0.5502486
    CHANNELS 3 Zrotation Xrotation Yrotation
    JOINT left_femur_tibia
    {
      OFFSET 0.8047443 -44.0398 -0.1307829
      CHANNELS 3 Zrotation Xrotation Yrotation
      JOINT left_tibia_foot
      {
        OFFSET -4.370144 -48.10324 -4.275266
        CHANNELS 3 Zrotation Xrotation Yrotation
        End Site
        {
          OFFSET 0 -5 15
        }
      }
    }
  }
  JOINT pelvis_spine1
  {
    OFFSET 0 6.468898 -3.129235
    CHANNELS 3 Zrotation Xrotation Yrotation
    JOINT spine1
    {
      OFFSET 0 23.15396 4.99043
      CHANNELS 3 Zrotation Xrotation Yrotation
      JOINT spine2
      {
        OFFSET 0 20.79997 -5.064912
        CHANNELS 3 Zrotation Xrotation Yrotation
        JOINT neck
        {
          OFFSET 0 14.38658 9.616178
          CHANNELS 3 Zrotation Xrotation Yrotation
          End Site
          {
            OFFSET 0 20 0
          }
        }
      }
      JOINT right_manubrium
      {
        OFFSET -5.722621 16.35077 3.967754
        CHANNELS 3 Zrotation Xrotation Yrotation
        JOINT right_clavicle
        {
          OFFSET -13.16364 1.694482 -4.693211
          CHANNELS 3 Zrotation Xrotation Yrotation
          JOINT right_humerus
          {
            OFFSET -28.5034 -0.3100689 -2.792744
            CHANNELS 3 Zrotation Xrotation Yrotation
            JOINT right_radius
            {
              OFFSET -25.15693 0.02248979 -1.271978
              CHANNELS 3 Zrotation Xrotation Yrotation
              End Site
              {
                OFFSET -15 0 0
              }
            }
          }
        }
      }
      JOINT left_manubrium
      {
        OFFSET 5.722621 16.35077 3.967754
        CHANNELS 3 Zrotation Xrotation Yrotation
        JOINT left_clavicle
        {
          OFFSET 13.16364 1.694482 -4.693211
          CHANNELS 3 Zrotation Xrotation Yrotation
          JOINT left_humerus
          {
            OFFSET 29.39168 -1.063119 -2.237045
            CHANNELS 3 Zrotation Xrotation Yrotation
            JOINT left_radius
            {
              OFFSET 24.59957 -0.9528479 0.9047498
              CHANNELS 3 Zrotation Xrotation Yrotation
              End Site
              {
                OFFSET 15 -0 -0
              }
            }
          }
        }
      }
    }
  }
}
MOTION
Frames: 11
Frame Time: 0.0416666666667
0 103.5113 0 1.337763 -1.332081 0.06880283 2.86675 -16.31763 7.937294 -0 35.80844 -0 -5.073591 -16.13902 -3.493578 -7.283253 12.20282 -23.09344 -0 4.949923 -0 6.95147 -17.96322 25.79244 -2.235354 -2.794434 5.853476 2.357613 9.599376 -7.188386 1.579678 21.02031 6.220837 3.013027 -25.80061 9.260874 5.749986 -19.70013 10.78003 83.68531 35.69199 -16.48924 -0 0 16.84735 -7.378043 9.178624 3.932802 6.973333 -20.7296 0.5986111 -94.71308 23.63799 23.51278 0 0 -12.94923 12.99881 16.24285 -0.5853713
0.2467594 103.2732 1.636782 0.8192754 -0.8759226 0.07268126 3.452239 -19.02782 8.118154 -0 35.82016 -0 -5.078412 -15.59411 -3.467874 -6.871321 12.60114 -23.25687 -0 4.916324 -0 4.801681 -19.75458 24.90509 -2.110859 -2.676059 5.557168 2.55681 9.670352 -7.460877 1.535978 20.78341 6.389653 3.125731 -26.02975 9.297304 5.732683 -19.39457 10.8434 84.32919 35.4889 -17.39849 -0 0 16.04011 -7.517619 9.321273 4.032675 7.118546 -20.99982 0.4495116 -94.13792 23.22797 22.61685 0 0 -13.81602 13.00912 15.85549 -0.6387645
0.4924706 102.9317 3.567446 0.1788422 -0.03405633 0.08108017 4.502724 -23.48742 7.435388 -0 32.51578 -0 -5.487207 -13.52674 -2.933557 -6.407785 12.92262 -22.20233 -0 5.4846 -0 4.57275 -21.08023 23.79703 -2.0175 -2.536725 5.276156 2.711376 9.728184 -7.709806 1.465107 20.57446 6.550121 3.271769 -26.13198 9.226797 5.707494 -19.07045 10.91273 84.89403 35.25805 -18.19462 -0 0 15.259 -7.953578 9.532459 4.303989 7.228241 -21.25214 0.2677836 -93.56582 22.91614 21.77657 0 0 -14.62393 12.68093 15.47295 -0.3374585
0.7355663 102.4439 5.887618 -0.2902665 0.81892 0.1325417 5.259668 -27.34278 6.552211 -0 28.39833 -0 -5.915424 -11.28541 -2.349875 -6.081838 13.139 -20.87462 -0 6.061251 -0 4.862872 -21.98139 22.70562 -1.945494 -2.423182 5.058269 2.835469 9.78097 -7.901698 1.40799 20.41454 6.678673 3.377623 -26.20639 9.180705 5.686084 -18.81344 10.97661 85.34102 35.1022 -18.80904 -0 0 14.62411 -8.292214 9.700711 4.527847 7.304663 -21.45015 0.1185169 -93.08173 22.61942 21.08317 0 0 -15.29826 12.49672 15.12114 -0.1859404
0.9729406 101.8001 8.751346 -0.6221638 1.834219 0.2709223 5.843031 -30.96025 5.49388 -0 23.30286 -0 -6.326357 -8.620514 -1.69694 -5.888421 13.35397 -19.2105 -0 6.988093 -0 5.691143 -22.5051 21.56859 -1.894226 -2.312558 4.874901 2.929364 9.827222 -8.058819 1.347431 20.28675 6.788686 3.476282 -26.22268 9.105611 5.662397 -18.58131 11.03934 85.70471 34.96423 -19.29922 -0 0 14.06829 -8.699 9.873628 4.794639 7.351435 -21.61494 -0.0290912 -92.63752 22.36943 20.47715 0 0 -15.88474 12.24559 14.784 0.03778099
1.194386 101.0276 12.24323 -0.8620015 2.812605 0.5376017 6.276285 -33.75628 4.52838 -0 18.41764 -0 -6.72474 -5.818763 -1.173165 -5.756601 13.65009 -17.52633 -0 8.454184 -0 6.322484 -22.64352 20.31033 -1.860922 -2.211471 4.732376 2.995919 9.869217 -8.177446 1.28901 20.19134 6.879698 3.55839 -26.20087 9.024 5.6379 -18.38819 11.09975 85.98462 34.86035 -19.66116 -0 0 13.60795 -9.112256 10.0332 5.070384 7.371804 -21.74287 -0.1649803 -92.24224 22.15062 19.96742 0 0 -16.37986 12.00632 14.46111 0.2514749
1.388653 100.2075 16.41722 -1.104411 3.611514 0.9655399 6.709784 -35.40081 3.828344 -0 14.52032 -0 -7.171941 -3.050654 -0.8746217 -5.585003 14.05435 -15.96569 -0 10.82419 -0 6.214523 -22.2673 18.75879 -1.84426 -2.115955 4.624687 3.036522 9.906835 -8.262573 1.230551 20.12406 6.953705 3.629206 -26.139 8.927822 5.611336 -18.2267 11.15786 86.18848 34.77628 -19.90861 -0 0 13.2312 -9.556769 10.18615 5.367717 7.367131 -21.83767 -0.2942723 -91.88834 21.96921 19.54313 0 0 -16.7897 11.74159 14.15141 0.4952776
1.550639 99.47247 21.26891 -1.43734 4.051542 1.550725 7.256458 -35.51229 3.484266 -0 12.30199 -0 -7.725645 -0.6960283 -0.830222 -5.271611 14.47174 -14.64386 -0 14.47195 -0 4.924632 -21.1488 16.76821 -1.842909 -2.026878 4.552311 3.052259 9.940724 -8.314281 1.173035 20.08351 7.011386 3.687763 -26.04303 8.821618 5.582656 -18.09962 11.21337 86.31793 34.71251 -20.04347 -0 0 12.9406 -10.02142 10.32859 5.6803 7.338995 -21.89902 -0.4151627 -91.57719 21.8225 19.2052 0 0 -17.11416 11.46382 13.85457 0.7566773
1.689308 99.00005 26.72669 -1.910153 4.014064 2.220732 7.946621 -33.90699 3.441083 -0 11.99548 -0 -8.418912 0.7540035 -0.9665027 -4.748346 14.62844 -13.57053 -0 19.78629 -0 2.431235 -19.00444 14.35024 -1.855664 -1.943408 4.513435 3.044348 9.971061 -8.334276 1.116407 20.06761 7.053469 3.735195 -25.91538 8.704975 5.551507 -18.00579 11.26614 86.3758 34.66393 -20.07069 -0 0 12.73351 -10.50835 10.46058 6.008897 7.288507 -21.92786 -0.5283275 -91.30767 21.71089 18.95111 0 0 -17.3543 11.16675 13.57073 1.042869
1.830719 98.97744 32.64304 -2.485292 3.469412 2.813992 8.683688 -30.72065 3.519026 -0 13.2168 -0 -9.235576 0.8625882 -1.146043 -4.029754 14.05281 -12.64239 -0 27.03164 -0 -0.6600051 -15.68279 11.83243 -1.880938 -1.865519 4.506483 3.014516 9.998237 -8.324274 1.061133 20.07408 7.080987 3.771972 -25.76047 8.580053 5.51789 -17.94483 11.31608 86.36602 34.62791 -19.99625 -0 0 12.60745 -11.01254 10.58067 6.350351 7.217638 -21.92551 -0.6333822 -91.07924 21.63201 18.77803 0 0 -17.51317 10.85395 13.29979 1.350439
2.009107 99.53831 38.80807 -3.004344 2.503382 3.116543 9.264362 -26.40412 3.549526 -0 14.99192 -0 -10.06297 -0.4454772 -1.262498 -3.250077 12.16439 -11.69306 -0 36.10747 -0 -3.292322 -11.47014 9.79396 -1.916465 -1.792916 4.527857 2.965689 10.02263 -8.287847 1.007703 20.09947 7.095488 3.799239 -25.58356 8.448942 5.482076 -17.91404 11.36312 86.2962 34.60015 -19.83213 -0 0 12.55523 -11.52862 10.68844 6.700824 7.129508 -21.89517 -0.730529 -90.88954 21.58242 18.67865 0 0 -17.59813 10.52771 13.04198 1.677154
